{"title":"Heropanti 2014 Hindi DVDSCR-Rip Xvid MP3-TeamTNT","uid":10208222,"size":731260865,"categoryP":"video","categoryS":"movies","magnet":"?xt=urn:btih:3d13f26724d74560fb3a39d7556fad67e61a9df3&amp;dn=Heropanti+2014+Hindi+DVDSCR-Rip+Xvid+MP3-TeamTNT&amp;tr=udp%3A%2F%2Ftracker.openbittorrent.com%3A80&amp;tr=udp%3A%2F%2Fopen.demonii.com%3A1337&amp;tr=udp%3A%2F%2Ftracker.coppersurfer.tk%3A6969&amp;tr=udp%3A%2F%2Fexodus.desync.com%3A6969","seeders":10,"leechers":1,"uploader":"HeroMaster","files":-1,"time":1400880707,"description":"::::::::::: TeamTNT PRESENTS ::::::::::\n\n &lt;a href=&quot;\nhttp://i.imgur.com/FaC9DIx.png&quot; rel=&quot;nofollow&quot; target=&quot;_NEW&quot;&gt;\nhttp://i.imgur.com/FaC9DIx.png&lt;/a&gt;\n\n\n:::: Heropanti 2014 Hindi DVDSCR-Rip ::::\n\n\n::Information::\n\n\nMovie:............Heropanti\nSource: ..........DVDSCR @ TeamTNT\nYear:.............2014\n\n\n::General::\n\n\nFormat                                   : AVI\nFormat/Info                              : Audio Video Interleave\nFile size                                : 694 MiB\nDuration                                 : 2h 21mn\nOverall bit rate                         : 687 Kbps\n\n\nVideo\nID                                       : 0\nFormat                                   : MPEG-4 Visual\nFormat profile                           : Advanced Simple@L5\nFormat settings, BVOP                    : 2\nFormat settings, QPel                    : No\nFormat settings, GMC                     : No warppoints\nFormat settings, Matrix                  : Default (H.263)\nCodec ID                                 : XVID\nCodec ID/Hint                            : XviD\nDuration                                 : 2h 21mn\nBit rate                                 : 601 Kbps\nWidth                                    : 640 pixels\nHeight                                   : 272 pixels\nDisplay aspect ratio                     : 2.35:1\nFrame rate                               : 23.976 fps\nColor space                              : YUV\nChroma subsampling                       : 4:2:0\nBit depth                                : 8 bits\nScan type                                : Progressive\nCompression mode                         : Lossy\nBits/(Pixel*Frame)                       : 0.144\nStream size                              : 607 MiB (88%)\nWriting library                          : XviD 1.2.1 (UTC 2008-12-04)\n\n\nAudio\nID                                       : 1\nFormat                                   : MPEG Audio\nFormat version                           : Version 1\nFormat profile                           : Layer 3\nMode                                     : Joint stereo\nMode extension                           : MS Stereo\nCodec ID                                 : 55\nCodec ID/Hint                            : MP3\nDuration                                 : 2h 21mn\nBit rate mode                            : Constant\nBit rate                                 : 80.0 Kbps\nChannel(s)                               : 2 channels\nSampling rate                            : 32.0 KHz\nCompression mode                         : Lossy\nStream size                              : 80.8 MiB (12%)\nAlignment                                : Aligned on interleaves\nInterleave, duration                     : 167 ms (4.00 video frames)\nInterleave, preload duration             : 216 ms\nTitle                                    : Hero-1\nWriting library                          : LAME3.99r\n\n\n::IMDB::\n\n &lt;a href=&quot;\nhttp://www.imdb.com/title/tt3142232/&quot; rel=&quot;nofollow&quot; target=&quot;_NEW&quot;&gt;\nhttp://www.imdb.com/title/tt3142232/&lt;/a&gt;\n\n\n::Greetz and Respect::\n\n\nALL CREDIT Goes to broken_heart for Encoding &amp; ravindrarajoriya for Distribution.\n\n\n::Poster::\n\n &lt;a href=&quot;\nhttp://i.imgur.com/Ad1my0B.jpg&quot; rel=&quot;nofollow&quot; target=&quot;_NEW&quot;&gt;\nhttp://i.imgur.com/Ad1my0B.jpg&lt;/a&gt;\n\n\n::Screenshots::\n\n &lt;a href=&quot;\nhttp://i.imgur.com/Nueo6o3.jpg&quot; rel=&quot;nofollow&quot; target=&quot;_NEW&quot;&gt;\nhttp://i.imgur.com/Nueo6o3.jpg&lt;/a&gt;\n\n &lt;a href=&quot;\nhttp://i.imgur.com/oVAydqP.jpg&quot; rel=&quot;nofollow&quot; target=&quot;_NEW&quot;&gt;\nhttp://i.imgur.com/oVAydqP.jpg&lt;/a&gt;\n\n &lt;a href=&quot;\nhttp://i.imgur.com/iXudJ2w.jpg&quot; rel=&quot;nofollow&quot; target=&quot;_NEW&quot;&gt;\nhttp://i.imgur.com/iXudJ2w.jpg&lt;/a&gt;\n\n\nSEED AND ENJOY!","torrent":{"xt":"urn:btih:3d13f26724d74560fb3a39d7556fad67e61a9df3","amp;dn":"Heropanti+2014+Hindi+DVDSCR-Rip+Xvid+MP3-TeamTNT","amp;tr":["udp%3A%2F%2Ftracker.openbittorrent.com%3A80","udp%3A%2F%2Fopen.demonii.com%3A1337","udp%3A%2F%2Ftracker.coppersurfer.tk%3A6969","udp%3A%2F%2Fexodus.desync.com%3A6969"],"infoHash":"3d13f26724d74560fb3a39d7556fad67e61a9df3","infoHashBuffer":{"type":"Buffer","data":[61,19,242,103,36,215,69,96,251,58,57,215,85,111,173,103,230,26,157,243]},"announce":[],"urlList":[]}}